Coordinates
version=1
nRows=8
nColumns=36
inDegrees=yes

Units are S.I. units (second, meters, Newtons, ...)
If the header above contains a line with 'inDegrees', this indicates whether rotational values are in degrees (yes) or radians (no).

endheader
time	pelvis_tilt	pelvis_list	pelvis_rotation	pelvis_tx	pelvis_ty	pelvis_tz	hip_flexion_r	hip_adduction_r	hip_rotation_r	knee_angle_r	knee_angle_r_beta	ankle_angle_r	subtalar_angle_r	mtp_angle_r	hip_flexion_l	hip_adduction_l	hip_rotation_l	knee_angle_l	knee_angle_l_beta	ankle_angle_l	subtalar_angle_l	mtp_angle_l	lumbar_extension	lumbar_bending	lumbar_rotation	arm_flex_r	arm_add_r	arm_rot_r	elbow_flex_r	pro_sup_r	arm_flex_l	arm_add_l	arm_rot_l	elbow_flex_l	pro_sup_l
      3.45416670	    -15.34846010	      2.90085273	      3.66853084	      0.43248560	      1.03672949	      0.06528102	     24.99570528	     -7.99563177	    -12.44411841	      8.59250601	      0.14996752	    -29.33540079	    -13.05694200	     -7.49999987	     21.78413310	     -8.18748419	     -8.59567797	      7.78825617	      0.13593071	    -16.57506190	    -14.69529830	     -7.49999987	     -8.18135646	      0.90093552	    -11.89474895	     22.55807144	     -4.80620496	     19.07714260	    123.24275468	     89.62012191	     35.24478974	     -1.88121466	     38.29572562	    106.79828689	     65.82603211
      3.45833330	    -15.01359738	      2.69027480	      3.77809254	      0.42878190	      1.02880732	      0.06999718	     25.22403011	     -7.75263344	    -11.26320957	      9.85243282	      0.17195739	    -29.85860111	    -13.03855966	     -7.49999987	     21.90019489	     -8.32714041	     -7.11263825	      8.31188752	      0.14506980	    -15.25702175	    -13.72349817	     -7.49999987	     -8.86135950	      1.00834816	    -12.29965240	     22.18574842	     -4.12851551	     18.98948241	    123.18519040	     88.04688193	     35.94114687	     -1.68167600	     38.61137042	    106.80614733	     65.53694375
      3.46250000	    -14.81658779	      2.72779672	      4.00933409	      0.42914194	      1.02186418	      0.06988047	     25.51950007	     -7.78922074	    -10.48590346	     11.01423744	      0.19223471	    -30.29337431	    -12.97703902	     -7.49999987	     22.14032415	     -8.14983030	     -5.95744736	      8.89755549	      0.15529164	    -14.30455528	    -13.08525654	     -7.49999987	     -9.43580606	      0.58617125	    -12.09023494	     21.16599847	     -3.81862394	     17.88738604	    123.90457985	     92.72368011	     36.93175179	     -1.11536376	     39.81053565	    106.15594871	     66.16636988
      3.46666670	    -14.73189095	      2.52413282	      4.00112752	      0.42940357	      1.00530255	      0.06997594	     25.98891628	     -7.49045200	    -10.04076855	     12.20237179	      0.21297156	    -30.98264083	    -13.32781452	     -7.49999987	     22.36108521	     -8.39816825	     -4.91472162	      9.46862931	      0.16525876	    -12.78430633	    -12.50996904	     -7.49999987	     -9.58538773	      0.64192649	    -12.55126086	     21.60821991	     -3.57708179	     18.39217878	    124.25132629	     91.48884475	     37.92587014	     -0.98886426	     40.12154736	    106.33786276	     65.86958504
      3.47083330	    -14.76523803	      2.21159739	      3.93525891	      0.43057551	      0.99353542	      0.07880921	     26.74678455	     -6.97086745	     -9.37403680	     13.79765746	      0.24081455	    -31.93161032	    -14.75671369	     -7.49999987	     22.67583547	     -9.00736588	     -4.05758380	     10.09155007	      0.17613078	    -11.62853012	    -12.10056337	     -7.49999987	     -9.52047335	      0.69832792	    -12.30594571	     21.61558639	     -3.30511237	     18.33605241	    125.26130491	     94.68178276	     38.75142547	     -0.77298703	     40.94982876	    106.81798137	     66.28939098
      3.47500000	    -14.56841092	      2.03070276	      4.01533444	      0.43437895	      0.98944566	      0.07354066	     26.83315883	     -6.83511014	     -9.33072503	     14.97718368	      0.26140117	    -31.22852045	    -15.49535351	     -7.49999987	     22.78628663	     -9.25467660	     -3.50875830	     10.81211186	      0.18870695	    -10.61042140	    -12.41797363	     -7.49999987	     -9.59363424	      0.87617204	    -12.37212260	     21.94869786	     -2.99306384	     18.57716473	    125.53222485	     94.58393570	     38.87624290	     -0.23979687	     41.10760607	    106.81506502	     66.29690239
      3.47916670	    -14.47288847	      1.77449442	      4.01170599	      0.43077674	      0.98296737	      0.07829103	     27.10895569	     -6.37757058	     -8.75247042	     15.77610297	      0.27534494	    -30.56568197	    -16.59342929	     -7.49999987	     23.12899863	     -9.69595635	     -3.25619602	     11.58530589	      0.20220173	    -10.49986150	    -13.02544349	     -7.49999987	    -10.00993225	      0.84526214	    -11.98398968	     21.81199570	     -3.06009132	     18.46819569	    126.85610465	     94.10903467	     39.42818492	      0.15116460	     41.69822135	    106.79108441	     66.59567794
      3.48333330	    -14.14382647	      1.67087964	      3.91945054	      0.43083051	      0.97870575	      0.07822597	     26.87795632	     -6.16913407	     -9.05870576	     16.60115797	      0.28974487	    -28.58576104	    -16.98888587	     -7.49999987	     23.37097652	     -9.97955457	     -2.76833524	     12.78204199	      0.22308872	    -10.42247050	    -13.36346857	     -7.49999987	    -10.57178808	      0.80939893	    -12.22294607	     22.26338362	     -2.87356988	     18.91245394	    126.66791337	     93.28944891	     39.64064165	      0.14656730	     41.59704620	    107.03182558	     66.64888492
